<svg xmlns="http://www.w3.org/2000/svg" version="1.1" xmlns:xlink="http://www.w3.org/1999/xlink" xmlns:svgjs="http://svgjs.dev/svgjs" width="1000" height="1000" viewBox="0 0 1000 1000"><rect width="1000" height="1000" fill="#000000"></rect><g transform="matrix(0.7,0,0,0.7,149.57575990886596,417.9306862958077)"><svg viewBox="0 0 396 93" data-background-color="#ffffff" preserveAspectRatio="xMidYMid meet" height="234" width="1000" xmlns="http://www.w3.org/2000/svg" xmlns:xlink="http://www.w3.org/1999/xlink"><g id="tight-bounds" transform="matrix(1,0,0,1,0.2400013198727038,0.09613049139124996)"><svg viewBox="0 0 395.52 92.80773901721753" height="92.80773901721753" width="395.52"><g><svg viewBox="0 0 666.892485805515 156.48458681022876" height="92.80773901721753" width="395.52"><g><rect width="4.320533189633378" height="156.48458681022876" x="255.7416563079408" y="0" fill="#ffffff" opacity="1" stroke-width="0" stroke="transparent" fill-opacity="1" class="rect-o-0" data-fill-palette-color="primary" rx="1%" id="o-0" data-palette-color="#0080ff"></rect></g><g transform="matrix(1,0,0,1,271.37248580551494,0.3892651413189725)"><svg viewBox="0 0 395.52 155.70605652759082" height="155.70605652759082" width="395.52"><g id="textblocktransform"><svg viewBox="0 0 395.52 155.70605652759082" height="155.70605652759082" width="395.52" id="textblock"><g><svg viewBox="0 0 395.52 155.70605652759082" height="155.70605652759082" width="395.52"><g transform="matrix(1,0,0,1,0,0)"><svg width="395.52" viewBox="4.249999046325684 -35.5 297.20001220703125 113.75" height="155.70605652759082" data-palette-color="#0080ff"><svg></svg><svg></svg><svg></svg><g class="wordmark-text-0" data-fill-palette-color="primary" id="text-0"><path xmlns="http://www.w3.org/2000/svg" d="M39.45 0h-4.5v-27.1l-11.7 20.85h-2.75l-11.75-20.85v27.1h-4.5v-35.5h4.75l12.85 23.05 12.9-23.05h4.7zM44.35-35.5h4.95l10.75 18.5 10.85-18.5h4.9l-13.5 22.55v12.95h-4.5v-13.05z" fill="#ffffff" fill-rule="nonzero" stroke="none" stroke-width="1" stroke-linecap="butt" stroke-linejoin="miter" stroke-miterlimit="10" stroke-dasharray="" stroke-dashoffset="0" font-family="none" font-weight="none" font-size="none" text-anchor="none" style="mix-blend-mode: normal" data-fill-palette-color="primary" opacity="1"></path><path xmlns="http://www.w3.org/2000/svg" d="M16.55 39h-12.3v-35.5h12.3c3.8 0 6.977 0.79 9.53 2.37 2.547 1.587 4.453 3.72 5.72 6.4 1.267 2.687 1.9 5.663 1.9 8.93v0c0 3.6-0.7 6.733-2.1 9.4-1.4 2.667-3.383 4.733-5.95 6.2-2.567 1.467-5.6 2.2-9.1 2.2zM29.15 21.2v0c0-2.667-0.49-5.033-1.47-7.1-0.987-2.067-2.413-3.683-4.28-4.85-1.867-1.167-4.15-1.75-6.85-1.75v0h-7.8v27.5h7.8c2.733 0 5.033-0.61 6.9-1.83 1.867-1.213 3.283-2.863 4.25-4.95 0.967-2.08 1.45-4.42 1.45-7.02zM44.55 39h-4.5v-35.5h4.5zM67.3 39.25v0c-2.333 0-4.507-0.51-6.52-1.53-2.02-1.013-3.78-2.38-5.28-4.1-1.5-1.713-2.667-3.647-3.5-5.8-0.833-2.147-1.25-4.37-1.25-6.67v0c0-2.4 0.417-4.677 1.25-6.83 0.833-2.147 1.993-4.053 3.48-5.72 1.48-1.667 3.23-2.977 5.25-3.93 2.013-0.947 4.203-1.42 6.57-1.42v0c3.433 0 6.267 0.717 8.5 2.15 2.233 1.433 3.917 3.3 5.05 5.6v0l-3.45 2.4c-1.033-2.067-2.45-3.6-4.25-4.6-1.8-1-3.783-1.5-5.95-1.5v0c-1.8 0-3.433 0.383-4.9 1.15-1.467 0.767-2.723 1.807-3.77 3.12-1.053 1.32-1.853 2.813-2.4 4.48-0.553 1.667-0.83 3.4-0.83 5.2v0c0 1.9 0.31 3.69 0.93 5.37 0.613 1.687 1.487 3.17 2.62 4.45 1.133 1.287 2.45 2.297 3.95 3.03 1.5 0.733 3.117 1.1 4.85 1.1v0c2.033 0 3.967-0.517 5.8-1.55 1.833-1.033 3.567-2.617 5.2-4.75v0 4.65c-3.2 3.8-6.983 5.7-11.35 5.7zM78.1 39v-14.3h-7.65v-3.4h11.45v17.7zM93.25 39h-4.5v-35.5h4.5zM127.35 3.5v4h-12.25v31.5h-4.5v-31.5h-12.25v-4zM125.35 39l14.55-35.5h3.8l14.5 35.5h-4.8l-4.2-10.4h-14.9l-4.15 10.4zM135.2 25.1h13l-6.4-16.4zM187.25 39h-24.3v-35.5h4.5v31.5h19.8z" fill="#ffffff" fill-rule="nonzero" stroke="none" stroke-width="1" stroke-linecap="butt" stroke-linejoin="miter" stroke-miterlimit="10" stroke-dasharray="" stroke-dashoffset="0" font-family="none" font-weight="none" font-size="none" text-anchor="none" style="mix-blend-mode: normal" data-fill-palette-color="primary" opacity="1"></path><path xmlns="http://www.w3.org/2000/svg" d="M39.45 78h-4.5v-27.1l-11.7 20.85h-2.75l-11.75-20.85v27.1h-4.5v-35.5h4.75l12.85 23.05 12.9-23.05h4.7zM62.35 78.25v0c-2.5 0-4.767-0.5-6.8-1.5-2.033-1-3.79-2.36-5.27-4.08-1.487-1.713-2.63-3.647-3.43-5.8-0.8-2.147-1.2-4.353-1.2-6.62v0c0-2.367 0.427-4.627 1.28-6.78 0.847-2.147 2.03-4.063 3.55-5.75 1.513-1.68 3.287-3.01 5.32-3.99 2.033-0.987 4.25-1.48 6.65-1.48v0c2.5 0 4.767 0.517 6.8 1.55 2.033 1.033 3.783 2.417 5.25 4.15 1.467 1.733 2.6 3.667 3.4 5.8 0.8 2.133 1.2 4.317 1.2 6.55v0c0 2.367-0.417 4.623-1.25 6.77-0.833 2.153-2.007 4.07-3.52 5.75-1.52 1.687-3.297 3.013-5.33 3.98-2.033 0.967-4.25 1.45-6.65 1.45zM50.2 60.25v0c0 1.8 0.293 3.54 0.88 5.22 0.58 1.687 1.403 3.18 2.47 4.48 1.067 1.3 2.35 2.333 3.85 3.1 1.5 0.767 3.167 1.15 5 1.15v0c1.9 0 3.6-0.4 5.1-1.2 1.5-0.8 2.777-1.867 3.83-3.2 1.047-1.333 1.847-2.833 2.4-4.5 0.547-1.667 0.82-3.35 0.82-5.05v0c0-1.8-0.29-3.533-0.87-5.2-0.587-1.667-1.42-3.16-2.5-4.48-1.087-1.313-2.37-2.347-3.85-3.1-1.487-0.747-3.13-1.12-4.93-1.12v0c-1.9 0-3.6 0.39-5.1 1.17-1.5 0.787-2.773 1.847-3.82 3.18-1.053 1.333-1.863 2.823-2.43 4.47-0.567 1.653-0.85 3.347-0.85 5.08zM120.55 78h-4.5v-27.1l-11.7 20.85h-2.75l-11.75-20.85v27.1h-4.5v-35.5h4.75l12.85 23.05 12.9-23.05h4.7zM133.55 74h19.6v4h-24.1v-35.5h23.65v4h-19.15v11.5h16.65v3.75h-16.65zM185.2 78l-21.4-27.2v27.2h-4.5v-35.5h3.8l21.7 27.75v-27.7h4.5v35.45zM223.4 42.5v4h-12.25v31.5h-4.5v-31.5h-12.25v-4zM243.15 78.25v0c-2.833 0-5.217-0.493-7.15-1.48-1.933-0.98-3.483-2.313-4.65-4-1.167-1.68-2.017-3.587-2.55-5.72-0.533-2.133-0.8-4.333-0.8-6.6v0-17.95h4.5v17.95c0 1.733 0.177 3.423 0.53 5.07 0.347 1.653 0.92 3.13 1.72 4.43 0.8 1.3 1.883 2.333 3.25 3.1 1.367 0.767 3.067 1.15 5.1 1.15v0c2.067 0 3.783-0.393 5.15-1.18 1.367-0.78 2.45-1.83 3.25-3.15 0.8-1.313 1.373-2.787 1.72-4.42 0.353-1.633 0.53-3.3 0.53-5v0-17.95h4.5v17.95c0 2.4-0.273 4.673-0.82 6.82-0.553 2.153-1.43 4.047-2.63 5.68-1.2 1.633-2.757 2.923-4.67 3.87-1.92 0.953-4.247 1.43-6.98 1.43zM301.45 78h-4.5v-27.1l-11.7 20.85h-2.75l-11.75-20.85v27.1h-4.5v-35.5h4.75l12.85 23.05 12.9-23.05h4.7z" fill="#ffffff" fill-rule="nonzero" stroke="none" stroke-width="1" stroke-linecap="butt" stroke-linejoin="miter" stroke-miterlimit="10" stroke-dasharray="" stroke-dashoffset="0" font-family="none" font-weight="none" font-size="none" text-anchor="none" style="mix-blend-mode: normal" data-fill-palette-color="primary" opacity="1"></path></g></svg></g></svg></g></svg></g></svg></g><g transform="matrix(1,0,0,1,0,8.771393592250746)"><svg viewBox="0 0 244.43136 138.94179962572727" height="138.94179962572727" width="244.43136"><g><svg xmlns="http://www.w3.org/2000/svg" xmlns:xlink="http://www.w3.org/1999/xlink" version="1.1" x="0" y="0" viewBox="21.84200096130371 33.96151351928711 52.79199981689453 30.008487701416016" enable-background="new 0 0 100 100" xml:space="preserve" height="138.94179962572727" width="244.43136" class="icon-icon-0" data-fill-palette-color="accent" id="icon-0"><path d="M60.75 63.042c-3.424 0-6.712-1.257-9.26-3.538-0.566-0.507-0.614-1.376-0.107-1.941 0.507-0.567 1.378-0.614 1.941-0.107 2.043 1.829 4.681 2.837 7.426 2.837 6.141 0 11.136-4.996 11.136-11.137S66.891 38.02 60.75 38.02c-6.604 0-8.749 5.431-10.474 9.795-0.275 0.695-0.53 1.341-0.782 1.902-0.246 0.551-0.493 1.188-0.76 1.874-1.664 4.283-4.448 11.451-13.006 11.451-7.656 0-13.886-6.229-13.886-13.887 0-7.656 6.229-13.886 13.886-13.886 3.425 0 6.714 1.258 9.264 3.541 0.565 0.507 0.613 1.376 0.106 1.942-0.507 0.565-1.377 0.612-1.942 0.106-2.043-1.831-4.682-2.84-7.428-2.84-6.141 0-11.136 4.995-11.136 11.136s4.995 11.137 11.136 11.137c6.676 0 8.765-5.377 10.442-9.696 0.285-0.734 0.55-1.414 0.813-2.002 0.236-0.528 0.476-1.136 0.734-1.79 1.704-4.314 4.558-11.534 13.031-11.534 7.656 0 13.886 6.229 13.886 13.886C74.636 56.812 68.406 63.042 60.75 63.042z" fill="#ffffff" data-fill-palette-color="accent"></path><path d="M44.869 41.795c-0.028 0-0.057-0.001-0.085-0.003l-5.664-0.353c-0.491-0.03-0.928-0.32-1.146-0.76-0.219-0.44-0.186-0.963 0.086-1.372l3.138-4.729c0.271-0.41 0.727-0.653 1.231-0.612 0.49 0.03 0.927 0.32 1.146 0.76l2.526 5.082c0.219 0.44 0.186 0.963-0.086 1.372C45.759 41.565 45.328 41.795 44.869 41.795zM41.667 38.843l0.911 0.057-0.406-0.816L41.667 38.843z" fill="#ffffff" data-fill-palette-color="accent"></path><polygon points="53.451,62.595 51.311,57.339 56.933,58.112 " fill="#ffffff" data-fill-palette-color="accent"></polygon><path d="M53.451 63.97c-0.062 0-0.125-0.004-0.188-0.013-0.486-0.067-0.9-0.389-1.086-0.844l-2.141-5.256c-0.186-0.455-0.114-0.974 0.188-1.362 0.302-0.388 0.794-0.586 1.273-0.519l5.622 0.773c0.486 0.067 0.9 0.389 1.086 0.844s0.114 0.974-0.188 1.362l-3.481 4.482C54.274 63.776 53.872 63.97 53.451 63.97zM53.482 59.025l0.344 0.845 0.56-0.721L53.482 59.025z" fill="#ffffff" data-fill-palette-color="accent"></path></svg></g></svg></g></svg></g><defs></defs></svg><rect width="395.52" height="92.80773901721753" fill="none" stroke="none" visibility="hidden"></rect></g></svg></g></svg>